<?xml version="1.0" standalone="no"?>
<!DOCTYPE svg PUBLIC "-//W3C//DTD SVG 20010904//EN"
 "http://www.w3.org/TR/2001/REC-SVG-20010904/DTD/svg10.dtd">
<svg version="1.0" xmlns="http://www.w3.org/2000/svg"
 width="512.000000pt" height="512.000000pt" viewBox="0 0 512.000000 512.000000"
 preserveAspectRatio="xMidYMid meet">
<metadata>
Created by potrace 1.14, written by Peter Selinger 2001-2017
</metadata>
<g transform="translate(0.000000,512.000000) scale(0.100000,-0.100000)"
fill="#000000" stroke="none">
<path d="M2050 4610 c-280 -280 -510 -511 -510 -512 0 -3 3032 -2 3057 1 9 1
12 119 12 511 l0 510 -1025 0 -1024 0 -510 -510z"/>
<path d="M3589 3837 c-5 -5 -4 -3827 1 -3827 3 0 233 228 512 508 l507 507 -2
1405 -2 1405 -507 2 c-280 0 -509 0 -509 0z"/>
<path d="M515 2038 c-3 -7 -4 -180 -3 -383 l3 -370 510 -2 511 -1 -1 381 0
382 -508 3 c-402 2 -509 0 -512 -10z"/>
<path d="M520 1020 c0 -3 228 -233 508 -513 l507 -507 895 0 896 0 0 510 c0
281 -2 511 -5 511 -20 4 -2801 3 -2801 -1z"/>
</g>
</svg>
